<svg width="64" height="19" viewBox="0 0 64 19" fill="none" xmlns="http://www.w3.org/2000/svg">
<path d="M11.1875 15.4453V18H0.488281V1.08984H3.51172V15.4453H11.1875ZM20.1055 0.808594C25.0273 0.808594 28.1211 4.17188 28.1211 9.55078C28.1211 14.9297 25.0273 18.2812 20.1055 18.2812C15.1719 18.2812 12.0781 14.9297 12.0781 9.55078C12.0781 4.17188 15.1719 0.808594 20.1055 0.808594ZM20.1055 3.38672C17.082 3.38672 15.1719 5.77734 15.1719 9.55078C15.1719 13.3125 17.082 15.7031 20.1055 15.7031C23.1172 15.7031 25.0391 13.3125 25.0391 9.55078C25.0391 5.77734 23.1172 3.38672 20.1055 3.38672ZM45.3359 10.9453C45.3359 15.5273 42.5938 18.2812 37.9648 18.2812C33.0312 18.2812 29.9609 14.9297 29.9609 9.48047C29.9609 4.11328 33.0195 0.808594 37.9062 0.808594C41.75 0.808594 44.6562 3.08203 45.207 6.46875H42.1367C41.5625 4.52344 39.9922 3.375 37.918 3.375C34.8711 3.375 33.0547 5.63672 33.0547 9.44531C33.0547 13.3359 34.9531 15.7148 38 15.7148C40.5547 15.7148 42.3242 14.0977 42.3711 11.7305L42.3828 11.4492H38.3047V9.14062H45.3359V10.9453ZM55.2617 0.808594C60.1836 0.808594 63.2773 4.17188 63.2773 9.55078C63.2773 14.9297 60.1836 18.2812 55.2617 18.2812C50.3281 18.2812 47.2344 14.9297 47.2344 9.55078C47.2344 4.17188 50.3281 0.808594 55.2617 0.808594ZM55.2617 3.38672C52.2383 3.38672 50.3281 5.77734 50.3281 9.55078C50.3281 13.3125 52.2383 15.7031 55.2617 15.7031C58.2734 15.7031 60.1953 13.3125 60.1953 9.55078C60.1953 5.77734 58.2734 3.38672 55.2617 3.38672Z" fill="#379570"/>
</svg>
